<svg width="284" height="128" viewBox="0 0 284 128" fill="none" xmlns="http://www.w3.org/2000/svg">
<path d="M150.228 52.4676C149.129 52.4676 148.183 52.0749 147.39 51.2895C146.597 50.4887 146.2 49.5569 146.2 48.4943C146.2 47.3701 146.589 46.4229 147.367 45.6529C148.16 44.8675 149.114 44.4748 150.228 44.4748C151.311 44.4748 152.242 44.8675 153.02 45.6529C153.798 46.4229 154.187 47.3701 154.187 48.4943C154.187 49.5569 153.79 50.4887 152.997 51.2895C152.219 52.0749 151.296 52.4676 150.228 52.4676Z" fill="black"/>
<path d="M168.392 44.4793H161.249V82.1861H168.392V44.4793Z" fill="black"/>
<path d="M84.9555 44.9979V82.1861H77.7859V59.5205H77.3311L70.1615 79.5409H61.3332L54.2171 59.5205H53.789V82.1861H46.5926V44.9979H55.9827L65.346 71.346H66.2289L75.5922 44.9979H84.9555Z" fill="black"/>
<path fill-rule="evenodd" clip-rule="evenodd" d="M115.051 73.2651C115.051 74.7346 115.309 75.7374 115.827 76.2733C116.344 76.8093 117.164 77.0772 118.288 77.0772V82.1861H116.629C113.33 82.1861 111.216 81.0536 110.289 78.7888C108.47 81.2265 105.581 82.4454 101.621 82.4454C98.5357 82.4454 96.0745 81.7366 94.2375 80.3189C92.4005 78.8839 91.482 76.9735 91.482 74.5877C91.482 73.6886 91.6247 72.8588 91.9101 72.0981C92.1954 71.3374 92.5611 70.6804 93.0069 70.1272C93.4528 69.5566 94.0235 69.038 94.7191 68.5712C95.4146 68.1044 96.1013 67.7154 96.779 67.4042C97.4746 67.093 98.2771 66.8164 99.1867 66.5743C100.114 66.315 100.935 66.1162 101.648 65.9779C102.379 65.8395 103.217 65.7272 104.163 65.6407C105.108 65.537 105.857 65.4678 106.41 65.4333C106.981 65.3814 107.649 65.3382 108.416 65.3036C108.327 62.5028 106.775 61.1024 103.761 61.1024C103.03 61.1024 102.388 61.1802 101.835 61.3358C101.3 61.4914 100.89 61.6816 100.605 61.9064C100.337 62.1311 100.123 62.3559 99.9625 62.5806C99.802 62.8054 99.7039 62.9955 99.6683 63.1511L99.6148 63.3845H92.7662C93.0158 60.9641 94.1127 59.0278 96.0567 57.5755C98.0185 56.106 100.64 55.3712 103.922 55.3712C107.364 55.3712 110.075 56.2529 112.055 58.0164C114.052 59.7798 115.051 62.5115 115.051 66.2113V73.2651ZM98.3842 74.3802C98.3842 75.4694 98.9816 76.2387 100.177 76.6882C101.461 77.1723 102.861 77.1205 104.377 76.5326C106.125 75.8584 107.311 74.6655 107.935 72.9539C108.149 72.366 108.274 71.7264 108.309 71.0348V70.4902C107.453 70.5767 106.74 70.6545 106.169 70.7236C105.616 70.7928 104.956 70.8879 104.189 71.0089C103.423 71.1299 102.789 71.2509 102.29 71.3719C101.808 71.493 101.291 71.6572 100.738 71.8647C100.203 72.0548 99.7753 72.271 99.4542 72.513C99.1511 72.7378 98.8924 73.0144 98.6784 73.3429C98.4822 73.6541 98.3842 73.9998 98.3842 74.3802Z" fill="black"/>
<path d="M141.963 80.2151L139.314 75.4953L138.886 75.7287C138.601 75.8843 138.191 76.0399 137.656 76.1955C137.121 76.3338 136.612 76.403 136.131 76.403C135.132 76.403 134.294 76.1004 133.616 75.4953C132.956 74.8729 132.626 74.1122 132.626 73.2132V61.3099H139.528V55.6305H132.626V47.6691H126.018V52.9854C126.018 53.9362 125.733 54.6969 125.162 55.2675C124.591 55.8207 123.833 56.0973 122.888 56.0973H120.133V61.3099H125.617V73.6281C125.617 76.2387 126.571 78.3652 128.479 80.0077C130.388 81.6328 132.706 82.4454 135.435 82.4454C136.22 82.4454 136.987 82.3589 137.736 82.1861C138.485 82.0305 139.091 81.8576 139.555 81.6674C140.019 81.4772 140.456 81.2525 140.866 80.9931C141.294 80.7338 141.561 80.5523 141.668 80.4485C141.793 80.3448 141.891 80.267 141.963 80.2151Z" fill="black"/>
<path d="M153.626 55.6305V82.1861H146.59V55.6305H153.626Z" fill="black"/>
<path d="M192.147 55.3712C195.571 55.3712 198.166 56.495 199.932 58.7425C201.715 60.9728 202.607 63.9896 202.607 67.7932V82.1861H195.277V68.8046C195.259 68.4069 195.259 67.9834 195.277 67.5338C195.295 67.0843 195.268 66.6262 195.197 66.1594C195.143 65.6926 195.063 65.2344 194.956 64.7849C194.867 64.3354 194.706 63.9118 194.474 63.5142C194.26 63.1166 193.993 62.7708 193.672 62.4769C193.369 62.183 192.967 61.9496 192.468 61.7767C191.969 61.6038 191.407 61.5174 190.783 61.5174C190.23 61.5174 189.668 61.5779 189.097 61.6989C188.544 61.8026 187.929 62.036 187.251 62.3991C186.591 62.7621 186.003 63.2376 185.486 63.8254C184.986 64.3959 184.567 65.1912 184.228 66.2113C183.889 67.2313 183.72 68.3983 183.72 69.7122V82.1861H176.363V44.4793H183.319V58.3794H184.255C186.235 56.3739 188.865 55.3712 192.147 55.3712Z" fill="black"/>
<path fill-rule="evenodd" clip-rule="evenodd" d="M233.826 76.2733C233.309 75.7374 233.05 74.7346 233.05 73.2651V66.2113C233.05 62.5115 232.051 59.7798 230.054 58.0164C228.074 56.2529 225.363 55.3712 221.921 55.3712C218.64 55.3712 216.018 56.106 214.056 57.5755C212.112 59.0278 211.015 60.9641 210.765 63.3845H217.614L217.668 63.1511C217.703 62.9955 217.801 62.8054 217.962 62.5806C218.122 62.3559 218.336 62.1311 218.604 61.9064C218.889 61.6816 219.299 61.4914 219.835 61.3358C220.387 61.1802 221.029 61.1024 221.761 61.1024C224.775 61.1024 226.326 62.5028 226.416 65.3036C225.649 65.3382 224.98 65.3814 224.409 65.4333C223.856 65.4678 223.107 65.537 222.162 65.6407C221.217 65.7272 220.379 65.8395 219.647 65.9779C218.934 66.1162 218.113 66.315 217.186 66.5743C216.276 66.8164 215.474 67.093 214.778 67.4042C214.101 67.7154 213.414 68.1044 212.718 68.5712C212.023 69.038 211.452 69.5566 211.006 70.1272C210.56 70.6804 210.195 71.3374 209.909 72.0981C209.624 72.8588 209.481 73.6886 209.481 74.5877C209.481 76.9735 210.4 78.8839 212.237 80.3189C214.074 81.7366 216.535 82.4454 219.621 82.4454C223.58 82.4454 226.469 81.2265 228.288 78.7888C229.216 81.0536 231.329 82.1861 234.629 82.1861H236.287V77.0772C235.164 77.0772 234.343 76.8093 233.826 76.2733ZM218.176 76.6882C216.981 76.2387 216.383 75.4694 216.383 74.3802C216.383 73.9998 216.482 73.6541 216.678 73.3429C216.892 73.0144 217.15 72.7378 217.454 72.513C217.775 72.271 218.203 72.0548 218.738 71.8647C219.291 71.6572 219.808 71.493 220.289 71.3719C220.789 71.2509 221.422 71.1299 222.189 71.0089C222.956 70.8879 223.616 70.7928 224.168 70.7236C224.739 70.6545 225.453 70.5767 226.309 70.4902V71.0348C226.273 71.7264 226.148 72.366 225.934 72.9539C225.31 74.6655 224.124 75.8584 222.376 76.5326C220.86 77.1205 219.46 77.1723 218.176 76.6882Z" fill="black"/>
<path fill-rule="evenodd" clip-rule="evenodd" d="M0 0H284V128H0V0ZM7.58779 7.59322V120.407H276.412V7.59322H7.58779Z" fill="black"/>
</svg>
